<svg width="24" height="24" viewBox="0 0 24 24" fill="none" xmlns="http://www.w3.org/2000/svg">
<g clip-path="url(#clip0_24_9)">
<path d="M5.25 10.5C3.8 10.5 2.5625 9.9875 1.5375 8.9625C0.5125 7.9375 0 6.7 0 5.25C0 3.8 0.5125 2.5625 1.5375 1.5375C2.5625 0.5125 3.8 0 5.25 0C6.7 0 7.9375 0.5125 8.9625 1.5375C9.9875 2.5625 10.5 3.8 10.5 5.25C10.5 6.7 9.9875 7.9375 8.9625 8.9625C7.9375 9.9875 6.7 10.5 5.25 10.5ZM5.25 7.5C5.875 7.5 6.4065 7.281 6.8445 6.843C7.2825 6.405 7.501 5.874 7.5 5.25C7.5 4.625 7.281 4.0935 6.843 3.6555C6.405 3.2175 5.874 2.999 5.25 3C4.625 3 4.0935 3.219 3.6555 3.657C3.2175 4.095 2.999 4.626 3 5.25C3 5.875 3.219 6.4065 3.657 6.8445C4.095 7.2825 4.626 7.501 5.25 7.5ZM18.75 24C17.3 24 16.0625 23.4875 15.0375 22.4625C14.0125 21.4375 13.5 20.2 13.5 18.75C13.5 17.3 14.0125 16.0625 15.0375 15.0375C16.0625 14.0125 17.3 13.5 18.75 13.5C20.2 13.5 21.4375 14.0125 22.4625 15.0375C23.4875 16.0625 24 17.3 24 18.75C24 20.2 23.4875 21.4375 22.4625 22.4625C21.4375 23.4875 20.2 24 18.75 24ZM18.75 21C19.375 21 19.9065 20.781 20.3445 20.343C20.7825 19.905 21.001 19.374 21 18.75C21 18.125 20.781 17.5935 20.343 17.1555C19.905 16.7175 19.374 16.499 18.75 16.5C18.125 16.5 17.5935 16.719 17.1555 17.157C16.7175 17.595 16.499 18.126 16.5 18.75C16.5 19.375 16.719 19.9065 17.157 20.3445C17.595 20.7825 18.126 21.001 18.75 21ZM1.05 22.95C0.775 22.675 0.6375 22.325 0.6375 21.9C0.6375 21.475 0.775 21.125 1.05 20.85L20.85 1.05C21.125 0.775 21.475 0.6375 21.9 0.6375C22.325 0.6375 22.675 0.775 22.95 1.05C23.225 1.325 23.3625 1.675 23.3625 2.1C23.3625 2.525 23.225 2.875 22.95 3.15L3.15 22.95C2.875 23.225 2.525 23.3625 2.1 23.3625C1.675 23.3625 1.325 23.225 1.05 22.95Z" fill="black"/>
</g>
<defs>
<clipPath id="clip0_24_9">
<rect width="24" height="24" fill="white"/>
</clipPath>
</defs>
</svg>
