<svg width="24" height="24" viewBox="0 0 24 24" fill="none" xmlns="http://www.w3.org/2000/svg">
<g clip-path="url(#clip0_24_7)">
<path d="M19.3166 3.52849L16.2925 5.74379L17.3802 9.23802L14.2367 7.17117L11.0931 9.23802L12.1808 5.74379L9.15675 3.52849L12.9697 3.42572L14.2367 0L15.5036 3.42572L19.3166 3.52849ZM23.5 11.4191L21.5398 12.8464L22.245 15.1074L20.213 13.7714L18.181 15.1074L18.8863 12.8464L16.926 11.4191L19.3883 11.362L20.213 9.13524L21.0377 11.362L23.5 11.4191ZM20.7748 17.0715C21.7669 16.9801 22.8306 18.3276 22.1972 19.184C21.8147 19.6979 21.4083 20.1775 20.9063 20.6342C16.2328 25.1219 8.66669 25.1219 4.00513 20.6342C-0.668377 16.1808 -0.668377 8.94112 4.00513 4.48769C4.48324 4.03093 4.98525 3.61984 5.52313 3.25443C6.41958 2.64922 7.83 3.66552 7.73438 4.6133C7.41165 7.87915 8.55911 11.2706 11.1887 13.7714C12.4313 14.9649 13.9358 15.8801 15.5935 16.4507C17.2512 17.0214 19.0209 17.2335 20.7748 17.0715ZM18.8145 19.3781C15.3056 19.1854 11.9907 17.7766 9.49142 15.4157C6.89769 12.915 5.51117 9.7062 5.31993 6.48602C1.96122 10.0716 2.0927 15.5756 5.69046 19.0241C9.30018 22.4613 15.0614 22.5869 18.8145 19.3781Z" fill="black"/>
</g>
<defs>
<clipPath id="clip0_24_7">
<rect width="24" height="24" fill="white"/>
</clipPath>
</defs>
</svg>
