<svg width="24" height="24" viewBox="0 0 24 24" fill="none" xmlns="http://www.w3.org/2000/svg">
<g clip-path="url(#clip0_24_5)">
<path d="M23.296 16.0615L23.3306 15.9462C24.2231 13.3911 24.2231 10.6089 23.3306 8.05385L23.296 7.93846C22.4539 5.6169 20.9186 3.61026 18.8981 2.19031C16.8776 0.77037 14.4695 0.00574473 12 0C9.5297 0.00242927 7.1201 0.765754 5.09897 2.18615C3.07784 3.60654 1.54329 5.61504 0.704046 7.93846L0.669431 8.05385C-0.223144 10.6089 -0.223144 13.3911 0.669431 15.9462L0.704046 16.0615C1.54329 18.385 3.07784 20.3935 5.09897 21.8139C7.1201 23.2342 9.5297 23.9976 12 24C14.4703 23.9976 16.8799 23.2342 18.901 21.8139C20.9222 20.3935 22.4567 18.385 23.296 16.0615ZM9.05774 16.6154H14.9423C14.351 18.4508 13.3441 20.125 12 21.5077C10.6559 20.125 9.64901 18.4508 9.05774 16.6154ZM8.57314 14.7692C8.21939 12.94 8.21939 11.06 8.57314 9.23077H15.4269C15.6025 10.1434 15.6914 11.0706 15.6922 12C15.6919 12.9294 15.6031 13.8567 15.4269 14.7692H8.57314ZM1.84633 12C1.8483 11.064 1.97637 10.1326 2.2271 9.23077H6.6924C6.38471 11.0641 6.38471 12.9359 6.6924 14.7692H2.2271C1.97637 13.8674 1.8483 12.936 1.84633 12ZM14.9423 7.38462H9.05774C9.64901 5.54918 10.6559 3.87496 12 2.49231C13.3441 3.87496 14.351 5.54918 14.9423 7.38462ZM17.3076 9.23077H21.7729C22.2807 11.042 22.2807 12.958 21.7729 14.7692H17.3076C17.6153 12.9359 17.6153 11.0641 17.3076 9.23077ZM21.046 7.38462H16.8922C16.337 5.44074 15.3908 3.6307 14.1115 2.06538C15.5887 2.38434 16.9767 3.02683 18.1758 3.9466C19.3749 4.86637 20.3551 6.04055 21.046 7.38462ZM9.8885 2.06538C8.60919 3.6307 7.66296 5.44074 7.10778 7.38462H2.95401C3.64486 6.04055 4.62511 4.86637 5.82419 3.9466C7.02326 3.02683 8.41134 2.38434 9.8885 2.06538ZM2.95401 16.6154H7.10778C7.66296 18.5593 8.60919 20.3693 9.8885 21.9346C8.41043 21.618 7.02134 20.9764 5.82194 20.0563C4.62254 19.1363 3.64289 17.9609 2.95401 16.6154ZM14.1115 21.9346C15.3908 20.3693 16.337 18.5593 16.8922 16.6154H21.046C20.3571 17.9609 19.3775 19.1363 18.1781 20.0563C16.9787 20.9764 15.5896 21.618 14.1115 21.9346Z" fill="black"/>
</g>
<defs>
<clipPath id="clip0_24_5">
<rect width="24" height="24" fill="white"/>
</clipPath>
</defs>
</svg>
