<svg width="24" height="24" viewBox="0 0 24 24" fill="none" xmlns="http://www.w3.org/2000/svg">
<path d="M19 24C18.0278 24 17.2014 23.65 16.5208 22.95C15.8403 22.25 15.5 21.4 15.5 20.4C15.5 20.26 15.5097 20.1148 15.5292 19.9644C15.5486 19.814 15.5778 19.6792 15.6167 19.56L7.39167 14.64C7.06111 14.94 6.69167 15.1752 6.28333 15.3456C5.875 15.516 5.44722 15.6008 5 15.6C4.02778 15.6 3.20139 15.25 2.52083 14.55C1.84028 13.85 1.5 13 1.5 12C1.5 11 1.84028 10.15 2.52083 9.45C3.20139 8.75 4.02778 8.4 5 8.4C5.44722 8.4 5.875 8.4852 6.28333 8.6556C6.69167 8.826 7.06111 9.0608 7.39167 9.36L15.6167 4.44C15.5778 4.32 15.5486 4.1852 15.5292 4.0356C15.5097 3.886 15.5 3.7408 15.5 3.6C15.5 2.6 15.8403 1.75 16.5208 1.05C17.2014 0.35 18.0278 0 19 0C19.9722 0 20.7986 0.35 21.4792 1.05C22.1597 1.75 22.5 2.6 22.5 3.6C22.5 4.6 22.1597 5.45 21.4792 6.15C20.7986 6.85 19.9722 7.2 19 7.2C18.5528 7.2 18.125 7.1152 17.7167 6.9456C17.3083 6.776 16.9389 6.5408 16.6083 6.24L8.38333 11.16C8.42222 11.28 8.45139 11.4152 8.47083 11.5656C8.49028 11.716 8.5 11.8608 8.5 12C8.5 12.14 8.49028 12.2852 8.47083 12.4356C8.45139 12.586 8.42222 12.7208 8.38333 12.84L16.6083 17.76C16.9389 17.46 17.3083 17.2252 17.7167 17.0556C18.125 16.886 18.5528 16.8008 19 16.8C19.9722 16.8 20.7986 17.15 21.4792 17.85C22.1597 18.55 22.5 19.4 22.5 20.4C22.5 21.4 22.1597 22.25 21.4792 22.95C20.7986 23.65 19.9722 24 19 24ZM19 4.8C19.3306 4.8 19.6078 4.6848 19.8318 4.4544C20.0558 4.224 20.1674 3.9392 20.1667 3.6C20.1667 3.26 20.0547 2.9748 19.8307 2.7444C19.6067 2.514 19.3298 2.3992 19 2.4C18.6694 2.4 18.3922 2.5152 18.1682 2.7456C17.9442 2.976 17.8326 3.2608 17.8333 3.6C17.8333 3.94 17.9453 4.2252 18.1693 4.4556C18.3933 4.686 18.6702 4.8008 19 4.8ZM5 13.2C5.33056 13.2 5.60783 13.0848 5.83183 12.8544C6.05583 12.624 6.16744 12.3392 6.16667 12C6.16667 11.66 6.05467 11.3748 5.83067 11.1444C5.60667 10.914 5.32978 10.7992 5 10.8C4.66944 10.8 4.39217 10.9152 4.16817 11.1456C3.94417 11.376 3.83256 11.6608 3.83333 12C3.83333 12.34 3.94533 12.6252 4.16933 12.8556C4.39333 13.086 4.67022 13.2008 5 13.2ZM19 21.6C19.3306 21.6 19.6078 21.4848 19.8318 21.2544C20.0558 21.024 20.1674 20.7392 20.1667 20.4C20.1667 20.06 20.0547 19.7748 19.8307 19.5444C19.6067 19.314 19.3298 19.1992 19 19.2C18.6694 19.2 18.3922 19.3152 18.1682 19.5456C17.9442 19.776 17.8326 20.0608 17.8333 20.4C17.8333 20.74 17.9453 21.0252 18.1693 21.2556C18.3933 21.486 18.6702 21.6008 19 21.6Z" fill="black"/>
</svg>
