<svg width="24" height="24" viewBox="0 0 24 24" fill="none" xmlns="http://www.w3.org/2000/svg">
<path d="M23.2243 9.09895L16.0296 8.04962L12.8133 1.50619C12.7255 1.32704 12.581 1.18201 12.4024 1.09385C11.9547 0.872043 11.4106 1.05689 11.1868 1.50619L7.97055 8.04962L0.77582 9.09895C0.577461 9.12739 0.396105 9.22123 0.257255 9.36342C0.0893918 9.53657 -0.0031083 9.76951 7.97568e-05 10.0111C0.00326781 10.2526 0.101883 10.483 0.274257 10.6516L5.47974 15.7448L4.24992 22.9365C4.22108 23.1038 4.23953 23.2759 4.30317 23.4332C4.36681 23.5905 4.47311 23.7268 4.60999 23.8266C4.74688 23.9263 4.90889 23.9856 5.07764 23.9977C5.24639 24.0098 5.41514 23.9742 5.56475 23.8949L12.0001 20.4995L18.4354 23.8949C18.6111 23.9887 18.8151 24.02 19.0106 23.9859C19.5037 23.9006 19.8352 23.4314 19.7502 22.9365L18.5204 15.7448L23.7259 10.6516C23.8675 10.5123 23.9611 10.3303 23.9894 10.1312C24.0659 9.63358 23.7202 9.17289 23.2243 9.09895V9.09895ZM16.3299 15.0281L17.3529 21.0085L12.0001 18.1875L6.64722 21.0113L7.67018 15.031L3.34031 10.7938L9.32506 9.92079L12.0001 4.48074L14.6751 9.92079L20.6598 10.7938L16.3299 15.0281Z" fill="black"/>
</svg>
